<svg xmlns="http://www.w3.org/2000/svg" width="512" height="512" viewBox="0 0 512 512">
  <defs>
    <linearGradient id="bg" x1="0" y1="0" x2="1" y2="1">
      <stop offset="0" stop-color="#1a2a3a"/>
      <stop offset="1" stop-color="#2d4a3e"/>
    </linearGradient>
    <linearGradient id="leaf" x1="0" y1="0" x2="0" y2="1">
      <stop offset="0" stop-color="#6dd47e"/>
      <stop offset="1" stop-color="#4caf6a"/>
    </linearGradient>
  </defs>
  <rect width="512" height="512" rx="112" fill="url(#bg)"/>
  <!-- pot -->
  <path d="M176 360 h160 l-20 96 a16 16 0 0 1 -16 12 h-88 a16 16 0 0 1 -16 -12 z" fill="#b5764a"/>
  <rect x="166" y="338" width="180" height="34" rx="12" fill="#c98a5c"/>
  <!-- stem -->
  <rect x="248" y="180" width="16" height="170" rx="8" fill="#4caf6a"/>
  <!-- leaves -->
  <path d="M256 250 C 200 240 168 196 176 150 C 232 158 268 200 256 250 Z" fill="url(#leaf)"/>
  <path d="M256 230 C 312 220 344 176 336 130 C 280 138 244 180 256 230 Z" fill="url(#leaf)"/>
  <!-- sprout top -->
  <circle cx="256" cy="150" r="26" fill="#6dd47e"/>
</svg>
